<?xml version="1.0" encoding="UTF-8"?>
<svg width="6px" height="19px" viewBox="0 0 6 19" version="1.1" xmlns="http://www.w3.org/2000/svg" xmlns:xlink="http://www.w3.org/1999/xlink">
    <!-- Generator: Sketch 52 (66869) - http://www.bohemiancoding.com/sketch -->
    <title>Shape</title>
    <desc>Created with Sketch.</desc>
    <g id="Page-1" stroke="none" stroke-width="1" fill="none" fill-rule="evenodd">
        <g id="180928_P7视频监控" transform="translate(-1333.000000, -423.000000)" fill="#FFFFFF" fill-rule="nonzero">
            <g id="Group-3" transform="translate(330.000000, 114.000000)">
                <g id="image">
                    <g id="zoomin/out" transform="translate(982.000000, 246.000000)">
                        <path d="M32.3799845,70.0625 C32.13786,69.8156743 31.843777,69.6923077 31.498099,69.6923077 L26.1036866,69.6923077 L21.1243512,69.692354 L15.7299842,69.692354 C15.3843061,69.692354 15.090314,69.8157206 14.8482349,70.0625463 C14.6061558,70.3093721 14.4852071,70.6088509 14.4852071,70.9615385 L14.4852071,73.5001389 C14.4852071,73.8529191 14.6061104,74.1524443 14.8481895,74.3990385 C15.0902686,74.6459568 15.3842607,74.7692308 15.7299387,74.7692308 L21.1243058,74.7692308 L26.103732,74.7692308 L31.4980536,74.7692308 C31.8440495,74.7692308 32.1379508,74.6459568 32.3799391,74.3990385 C32.6219728,74.1524443 32.7430123,73.8529191 32.7430123,73.5001389 L32.7430123,70.9615385 C32.7429215,70.6088509 32.6221544,70.3091868 32.3799845,70.0625 Z" id="Shape" transform="translate(23.614110, 72.230769) rotate(90.000000) translate(-23.614110, -72.230769) "></path>
                    </g>
                </g>
            </g>
        </g>
    </g>
</svg>